# xmcd
#
# Track frame offsets:
#	150
#	16750
#	34145
#	52737
#	70497
#	88525
#	105862
#	124637
#	142965
#	161172
#	168127
#	208047
#	229385
#	248272
#	274985
#
# Disc length: 3876 seconds
#
# Revision: 5
# Processed by: cddbd v1.5.2PL0 Copyright (c) Steve Scherf et al.
# Submitted via: audiograbber 1.83.01
#
DISCID=bc0f220f
DTITLE=Wilson Phillips - Greatest Hits
DYEAR=2000
DGENRE=Pop
TTITLE0=Hold On (Single Edit)
TTITLE1=You Won't See Me Cry (LP Version)
TTITLE2=You're In Love (Single - Radio Edit)
TTITLE3=Impulsive (Single Edit)
TTITLE4=Give It Up (New Extended Radio 7'')
TTITLE5=Release Me (Single Version)
TTITLE6=The Dream Is Still Alive (AC Remix)
TTITLE7=Flesh And Blood (Single Edit)
TTITLE8=Daniel (LP Version)
TTITLE9=A Conversation With Wilson Phillips
TTITLE10=Hotel California (Live In Japan)
TTITLE11=Hold On (Live In Japan)
TTITLE12=Naked And Sacred (LP Version) (Chynna Phillips)
TTITLE13=Miracle (LP Version) (The Wilsons)
TTITLE14=Everything I Need (LP Version) (The Wilsons)
EXTD=I'M YER DADDY NOW!!!!
EXTT0=
EXTT1=
EXTT2=
EXTT3=
EXTT4=
EXTT5=
EXTT6=
EXTT7=
EXTT8=
EXTT9=
EXTT10=
EXTT11=
EXTT12=
EXTT13=
EXTT14=
PLAYORDER=
